<svg width="100" height="92" viewBox="0 0 100 92" fill="none" xmlns="http://www.w3.org/2000/svg">
<path d="M100 41.6256V51.9865L51.0906 78.1096L0 50.6881V43.0927C0 43.0927 1.48014 41.0153 14.5936 35.692C14.5936 35.692 1.48013 44.8585 7.10205 45.1571L21.6048 52.8824V17.0475L25.6427 14.6845L25.1883 54.804L29.4858 57.0891V12.9187L37.5747 8.47832L37.1073 61.1659L41.4178 63.464V6.5048L51.4801 0L60.0623 6.5048V63.1914L64.2041 61.0231V8.95871L70.9166 13.1005V57.5175L76.1491 54.791V15.6842L80.0961 17.0605L80.5635 52.4929L94.5988 45.1571C94.5988 45.1571 99.8312 46.3386 85.6271 34.5105C85.6011 34.5235 91.6126 35.6011 100 41.6256ZM0 54.8299V63.9964L50.6881 91.3139L100 64.3859V56.3101L50.9868 82.8486L0 54.8299Z" fill="url(#paint0_linear)"/>
<defs>
<linearGradient id="paint0_linear" x1="50" y1="0.000908855" x2="50" y2="91.326" gradientUnits="userSpaceOnUse">
<stop offset="8.92299e-07" stop-color="#E92328"/>
<stop offset="0.7518" stop-color="#2C388E"/>
</linearGradient>
</defs>
</svg>
